<svg width="364" height="431" viewBox="0 0 364 431" fill="none" xmlns="http://www.w3.org/2000/svg">
<rect y="0.560547" width="364" height="430" rx="20" fill="#F9F8FE"/>
<rect x="22" y="55.5605" width="63" height="90" rx="2" fill="#54BD95"/>
<rect x="22" y="180.561" width="63" height="90" rx="2" fill="#0F8CE9"/>
<circle cx="190" cy="70.5605" r="25" transform="rotate(180 190 70.5605)" fill="#54BD95"/>
<path d="M242.5 60.8194L230 40.5605L284 49.9488L240 82.5605L242.5 60.8194Z" fill="#54BD95" stroke="white" strokeWidth="2"/>
<circle cx="67" cy="345.561" r="45" fill="#DBE5FA"/>
<circle cx="182" cy="345.561" r="45" fill="#0F8CE9"/>
<circle cx="297" cy="345.561" r="45" fill="#54BD95"/>
<circle cx="317" cy="345.561" r="4" fill="white"/>
<circle cx="302" cy="345.561" r="6" fill="white"/>
<circle cx="282" cy="345.561" r="9" fill="white"/>
<path d="M259.348 195.562H257.549C257.363 194.872 257 194.243 256.494 193.738C255.989 193.232 255.36 192.869 254.67 192.683C254.111 192.5 253.521 192.433 252.935 192.487C252.35 192.54 251.781 192.712 251.264 192.993C250.748 193.274 250.294 193.657 249.931 194.12C249.567 194.582 249.302 195.114 249.152 195.682C248.067 201.616 245.059 207.027 240.593 211.081C236.127 215.136 230.451 217.607 224.44 218.115C207.526 218.115 196.969 198.681 196.969 180.687C196.429 176.718 196.73 172.68 197.853 168.835C198.975 164.99 200.894 161.424 203.485 158.369C206.076 155.315 209.281 152.839 212.891 151.104C216.501 149.369 220.436 148.413 224.44 148.298C228.6 148.259 232.711 149.205 236.436 151.057C236.963 151.323 237.537 151.481 238.125 151.522C238.714 151.563 239.305 151.486 239.863 151.296C240.421 151.106 240.936 150.807 241.378 150.416C241.819 150.025 242.178 149.549 242.434 149.018C242.947 147.963 243.034 146.751 242.677 145.634C242.319 144.517 241.545 143.581 240.515 143.02C235.517 140.552 230.014 139.279 224.44 139.301C219.329 139.44 214.301 140.632 209.671 142.802C205.042 144.971 200.909 148.072 197.531 151.911C194.154 155.75 191.605 160.244 190.043 165.113C188.48 169.982 187.939 175.12 188.452 180.207C188.384 186.18 189.233 192.127 190.971 197.841H190.132C179.138 204.411 170.04 213.726 163.731 224.872C157.422 236.018 154.118 248.612 154.144 261.42C154.144 262.597 154.611 263.726 155.444 264.559C156.276 265.391 157.405 265.859 158.582 265.859H296.056C297.233 265.859 298.362 265.391 299.194 264.559C300.027 263.726 300.494 262.597 300.494 261.42C300.521 247.685 296.674 234.22 289.396 222.571C282.119 210.923 271.704 201.561 259.348 195.562ZM162.541 257.101C163.307 246.661 166.587 236.56 172.101 227.662C177.616 218.763 185.201 211.331 194.21 205.999C196.793 211.927 201.005 217.001 206.356 220.632C211.706 224.262 217.977 226.301 224.44 226.512C231.329 226.284 237.986 223.972 243.533 219.881C249.08 215.79 253.256 210.113 255.51 203.599C265.678 208.539 274.362 216.078 280.681 225.452C287.001 234.825 290.732 245.702 291.498 256.982L162.541 257.101Z" fill="#0DAE94"/>
<path d="M233.917 157.536C232.85 157.71 231.88 158.259 231.18 159.083C230.48 159.907 230.096 160.953 230.096 162.034C230.096 163.115 230.48 164.161 231.18 164.985C231.88 165.809 232.85 166.358 233.917 166.533H249.872V182.487C249.872 183.086 249.99 183.679 250.219 184.232C250.448 184.785 250.784 185.287 251.207 185.711C251.63 186.134 252.133 186.47 252.686 186.699C253.239 186.928 253.832 187.046 254.43 187.046C255.023 187.046 255.61 186.927 256.157 186.697C256.703 186.466 257.198 186.128 257.612 185.704C258.026 185.279 258.35 184.775 258.566 184.223C258.782 183.67 258.885 183.08 258.869 182.487V166.533H274.943C276.01 166.358 276.98 165.809 277.68 164.985C278.38 164.161 278.765 163.115 278.765 162.034C278.765 160.953 278.38 159.907 277.68 159.083C276.98 158.259 276.01 157.71 274.943 157.536H258.869V141.461C258.869 140.284 258.401 139.155 257.569 138.322C256.736 137.49 255.607 137.022 254.43 137.022C253.242 137.022 252.1 137.486 251.249 138.315C250.397 139.144 249.903 140.273 249.872 141.461V157.536H233.917Z" fill="#0DAE94"/>
</svg>
