<svg width="364" height="431" viewBox="0 0 364 431" fill="none" xmlns="http://www.w3.org/2000/svg">
<g clipPath="url(#clip0_95_2011)">
<rect y="0.560547" width="364" height="430" rx="20" fill="#F9F8FE"/>
<rect x="20" y="98.5605" width="353" height="351" rx="10" fill="#E9EFFC"/>
<rect x="38" y="116.561" width="326" height="314" fill="#F5FAFA"/>
<rect x="345" y="115.561" width="28" height="144" rx="14" fill="#0F8CE9"/>
<path d="M139 294.061H349.5" stroke="#E7ECF3" strokeWidth="2" stroke-dasharray="12 12"/>
<path d="M139 332.561H349.5" stroke="#E7ECF3" strokeWidth="2" stroke-dasharray="12 12"/>
<path d="M139 371.061H349.5" stroke="#E7ECF3" strokeWidth="2" stroke-dasharray="12 12"/>
<rect x="94.5" y="269.061" width="265" height="133" rx="8.5" stroke="#E7ECF3"/>
<rect x="146" y="321.561" width="18" height="64" rx="9" fill="#54BD95"/>
<rect x="191" y="289.561" width="18" height="64" rx="9" fill="#54BD95"/>
<rect x="236" y="303.561" width="18" height="64" rx="9" fill="#54BD95"/>
<rect x="281" y="321.561" width="18" height="64" rx="9" fill="#54BD95"/>
<rect x="326" y="294.561" width="18" height="64" rx="9" fill="#54BD95"/>
</g>
<defs>
<clipPath id="clip0_95_2011">
<rect y="0.560547" width="364" height="430" rx="20" fill="white"/>
</clipPath>
</defs>
</svg>
