<svg width="653" height="346" viewBox="0 0 653 346" fill="none" xmlns="http://www.w3.org/2000/svg">
<g clipPath="url(#clip0_163_4990)">
<mask id="mask0_163_4990" style="mask-type:luminance" maskUnits="userSpaceOnUse" x="0" y="0" width="708" height="346">
<path d="M708 0H0V346H708V0Z" fill="white"/>
</mask>
<g mask="url(#mask0_163_4990)">
<path d="M252.862 195.665C252.862 150.086 215.732 113.137 169.931 113.137C124.13 113.137 87 150.086 87 195.665C87 241.244 124.13 278.193 169.931 278.193C215.732 278.193 252.862 241.244 252.862 195.665Z" fill="#00CCB1" fill-opacity="0.6" stroke="#6B9FFF" strokeWidth="0.8" stroke-miterlimit="10"/>
<path d="M351.09 260.412H227.902C217.23 260.412 208.578 269.064 208.578 279.736V311.942C208.578 322.614 217.23 331.266 227.902 331.266H351.09C361.762 331.266 370.414 322.614 370.414 311.942V279.736C370.414 269.064 361.762 260.412 351.09 260.412Z" fill="#00CCB1" fill-opacity="0.6" stroke="#6B9FFF" strokeWidth="0.8" stroke-miterlimit="10"/>
<path d="M237.543 23.0524L181.418 44.3344C176.172 46.3236 173.532 52.1888 175.521 57.4347L196.803 113.56C198.792 118.806 204.658 121.446 209.903 119.457L266.029 98.1749C271.274 96.1854 273.915 90.3206 271.925 85.0742L250.643 28.9492C248.655 23.7032 242.789 21.0631 237.543 23.0524Z" fill="#00CCB1" fill-opacity="0.6" stroke="#6B9FFF" strokeWidth="0.8" stroke-miterlimit="10"/>
<path d="M560.288 40.1849C564.155 40.1849 567.29 37.0499 567.29 33.1828C567.29 29.3156 564.155 26.1807 560.288 26.1807C556.421 26.1807 553.286 29.3156 553.286 33.1828C553.286 37.0499 556.421 40.1849 560.288 40.1849Z" fill="#00CCB1" fill-opacity="0.6" stroke="#6B9FFF" strokeWidth="0.8" stroke-miterlimit="10"/>
<path d="M537.289 40.1849C541.157 40.1849 544.292 37.0499 544.292 33.1828C544.292 29.3156 541.157 26.1807 537.289 26.1807C533.422 26.1807 530.287 29.3156 530.287 33.1828C530.287 37.0499 533.422 40.1849 537.289 40.1849Z" fill="#00CCB1" fill-opacity="0.6" stroke="#6B9FFF" strokeWidth="0.8" stroke-miterlimit="10"/>
<path d="M514.292 40.1849C518.16 40.1849 521.294 37.0499 521.294 33.1828C521.294 29.3156 518.16 26.1807 514.292 26.1807C510.425 26.1807 507.29 29.3156 507.29 33.1828C507.29 37.0499 510.425 40.1849 514.292 40.1849Z" fill="#00CCB1" fill-opacity="0.6" stroke="#6B9FFF" strokeWidth="0.8" stroke-miterlimit="10"/>
<path d="M465.131 180.229C465.146 177.527 467.804 175.232 470.753 176.147L534.202 196.077C536.44 196.774 537.311 199.011 536.774 200.885L534.435 216.166C534.115 218.157 532.764 219.827 530.891 220.554L521.158 224.33L509.058 229.022C508.244 229.342 507.606 229.952 507.243 230.736L499.02 248.807C496.943 252.584 491.511 252.555 489.462 248.763L465.625 197.878C464.899 196.339 464.565 194.639 464.623 192.939L465.131 180.229Z" fill="#00CCB1" fill-opacity="0.6" stroke="#8FB7FF" strokeWidth="1.8" stroke-miterlimit="10" strokeLinejoin="round"/>
<path d="M507.868 213.508L499.85 228.034C497.772 231.811 492.339 231.782 490.292 227.991L465.655 182.321C463.81 178.907 467.049 174.985 470.754 176.147L534.204 196.077C537.777 197.195 537.85 202.235 534.305 203.471L509.684 211.983C508.914 212.244 508.26 212.796 507.854 213.523L507.868 213.508Z" fill="#00CCB1" fill-opacity="0.6" stroke="#8FB7FF" strokeWidth="1.8" stroke-miterlimit="10" strokeLinejoin="round"/>
<path d="M507.692 230.024L508.971 212.317" stroke="#8FB7FF" stroke-miterlimit="10" strokeLinejoin="round"/>
<path d="M499.035 248.791L501.548 224.853" stroke="#8FB7FF" stroke-miterlimit="10" strokeLinejoin="round"/>
<path d="M489.477 248.748L488.91 225.608" stroke="#8FB7FF" stroke-miterlimit="10" strokeLinejoin="round"/>
<path d="M500.928 114.857L479.676 148.511C477.435 152.097 473.504 154.281 469.263 154.281H425.472C421.231 154.292 417.3 152.097 415.059 148.511L394.026 114.857C391.531 110.869 391.531 105.824 394.014 101.847L415.265 68.1934C417.518 64.5959 421.438 62.4121 425.667 62.4121H469.47C473.711 62.4121 477.641 64.5959 479.883 68.1704L500.916 101.847C503.41 105.824 503.41 110.881 500.928 114.857Z" fill="#00CCB1" fill-opacity="0.6" stroke="#8FB7FF" strokeWidth="1.8" stroke-miterlimit="10"/>
<path d="M471.734 74.9057C472.481 73.7219 473.722 73.584 474.217 73.584C474.722 73.584 475.952 73.7104 476.699 74.9057L478.113 77.1815V77.1355L494.825 103.881C496.526 106.605 496.526 110.123 494.825 112.834L486.974 125.328L476.481 141.948C475.734 143.132 474.585 143.27 474.125 143.259C473.653 143.259 472.493 143.132 471.746 141.937L453.62 112.915C451.919 110.202 451.907 106.698 453.574 103.962L471.734 74.9057Z" fill="#00CCB1" fill-opacity="0.6" stroke="#8FB7FF" stroke-miterlimit="10"/>
<path d="M207.785 201.347C207.667 198.274 208.487 195.178 210.177 192.47L311.783 29.8533C314.69 25.198 319.78 22.3838 325.268 22.3838H381.998C387.486 22.3838 392.586 25.2097 395.495 29.8533L397.629 33.2773L398.391 34.4968L409.156 51.7106L422.746 73.4507C424.352 76.0304 425.161 78.9501 425.161 81.882C425.161 84.8015 424.352 87.7331 422.746 90.3128L337.334 226.992L323.309 249.435L323.262 249.517L321.152 252.917C318.243 257.562 313.143 260.387 307.655 260.387H250.913C245.425 260.387 240.324 257.55 237.416 252.917L222.77 229.477L210.177 209.309C208.652 206.87 207.842 204.126 207.785 201.347Z" fill="#00CCB1" fill-opacity="0.6" stroke="#8FB7FF" strokeWidth="1.8" strokeLinejoin="round"/>
<path d="M315.605 244.206C314.983 244.206 313.424 244.03 312.427 242.447L300.185 222.853L290.851 208.254L289.116 205.486C288.037 203.763 287.439 201.781 287.392 199.788C287.322 197.501 287.92 195.296 289.116 193.374L334.765 120.321L385.598 38.9064C386.594 37.3117 388.166 37.1357 388.787 37.1357C389.408 37.1357 390.98 37.3117 391.977 38.9064L392.715 40.0907L415.323 75.8435C417.622 79.5254 417.622 84.286 415.323 87.9679L318.818 242.365L318.771 242.447C317.774 244.03 316.226 244.206 315.594 244.206H315.605Z" fill="#00CCB1" fill-opacity="0.6" stroke="#8FB7FF" stroke-miterlimit="10" strokeLinejoin="round"/>
</g>
</g>
<defs>
<clipPath id="clip0_163_4990">
<rect width="708" height="346" fill="white"/>
</clipPath>
</defs>
</svg>
