<svg width="364" height="431" viewBox="0 0 364 431" fill="none" xmlns="http://www.w3.org/2000/svg">
<g clipPath="url(#clip0_95_2031)">
<rect y="0.560547" width="364" height="430" rx="20" fill="#F9F8FE"/>
<rect x="20" y="98.5605" width="353" height="351" rx="10" fill="#E9EFFC"/>
<rect x="38" y="116.561" width="326" height="314" fill="#F5FAFA"/>
<rect x="67.5" y="165.061" width="312" height="105" rx="9.5" stroke="#EFF2F7"/>
<g filter="url(#filter0_d_95_2031)">
<rect x="85" y="182.561" width="70" height="70" rx="10" fill="#0F8CE9"/>
</g>
<path d="M120 204.561C126.075 204.561 131 209.133 131 214.774C131 215.741 130.851 216.676 130.581 217.562C134.134 217.606 137 220.498 137 224.061C137 227.65 134.09 230.561 130.5 230.561H109.5C105.91 230.561 103 227.65 103 224.061C103 220.498 105.866 217.606 109.418 217.562C109.148 216.676 109 215.741 109 214.774C109 209.133 113.925 204.561 120 204.561Z" fill="#DBE5FA"/>
<rect x="185" y="239.561" width="190" height="10" rx="5" fill="#DBE5FA"/>
<rect x="185" y="239.561" width="92" height="10" rx="5" fill="#54BD95"/>
<rect x="185" y="217.561" width="104" height="6" rx="3" fill="#DBE5FA"/>
<rect x="185" y="185.561" width="190" height="16" rx="8" fill="#DBE5FA"/>
<rect x="27.5" y="297.061" width="347" height="105" rx="9.5" fill="white" stroke="#EFF2F7"/>
<g filter="url(#filter1_d_95_2031)">
<rect x="45" y="314.561" width="70" height="70" rx="10" fill="white"/>
</g>
<rect x="145" y="371.561" width="228" height="10" rx="5" fill="#DBE5FA"/>
<rect x="145" y="371.561" width="163.2" height="10" rx="5" fill="#54BD95"/>
<rect x="145" y="349.561" width="124.8" height="6" rx="3" fill="#DBE5FA"/>
<rect x="145" y="317.561" width="228" height="16" rx="8" fill="#DBE5FA"/>
<g clipPath="url(#clip1_95_2031)">
<path d="M86.9507 346.113H73.0493C72.2605 346.113 71.6211 346.753 71.6211 347.541C71.6211 348.33 72.2605 348.97 73.0493 348.97V349.922C73.0493 350.711 73.6888 351.35 74.4775 351.35C75.2663 351.35 75.9057 350.711 75.9057 349.922V348.97H84.0941V349.922C84.0941 350.711 84.7336 351.35 85.5223 351.35C86.3111 351.35 86.9505 350.711 86.9505 349.922V348.97C87.7393 348.97 88.3787 348.33 88.3787 347.541C88.3787 346.753 87.7395 346.113 86.9507 346.113Z" fill="#54BD95"/>
<path d="M80 339.448C78.4224 339.448 77.1436 340.727 77.1436 342.305H82.8564C82.8564 340.727 81.5775 339.448 80 339.448Z" fill="#54BD95"/>
<path d="M80 329.561C68.9543 329.561 60 338.515 60 349.561C60 360.606 68.9543 369.561 80 369.561C91.0457 369.561 100 360.606 100 349.561C100 338.515 91.0457 329.561 80 329.561ZM92.1875 358.11C92.1875 359.688 90.9086 360.967 89.3311 360.967H70.6689C69.0914 360.967 67.8125 359.688 67.8125 358.11V345.161C67.8125 343.584 69.0914 342.305 70.6689 342.305H74.287C74.2871 339.15 76.8448 336.592 80 336.592C83.1552 336.592 85.7129 339.15 85.7129 342.305H89.331C90.9086 342.305 92.1874 343.584 92.1874 345.161V358.11H92.1875Z" fill="#54BD95"/>
</g>
<mask id="path-20-inside-1_95_2031" fill="white">
<path d="M275 116.561C275 104.085 272.543 91.7316 267.769 80.2056C262.994 68.6797 255.997 58.207 247.175 49.3854C238.354 40.5638 227.881 33.5662 216.355 28.792C204.829 24.0178 192.476 21.5605 180 21.5605C167.524 21.5605 155.171 24.0178 143.645 28.792C132.119 33.5662 121.646 40.5638 112.825 49.3854C104.003 58.207 97.0056 68.6797 92.2314 80.2056C87.4572 91.7316 85 104.085 85 116.561H119.013C119.013 108.552 120.591 100.621 123.655 93.2219C126.72 85.8226 131.213 79.0994 136.876 73.4363C142.539 67.7731 149.262 63.2809 156.661 60.216C164.061 57.1511 171.991 55.5736 180 55.5736C188.009 55.5736 195.939 57.1511 203.339 60.216C210.738 63.2809 217.461 67.7731 223.124 73.4363C228.787 79.0994 233.28 85.8226 236.345 93.2219C239.409 100.621 240.987 108.552 240.987 116.561H275Z"/>
</mask>
<path d="M275 116.561C275 104.085 272.543 91.7316 267.769 80.2056C262.994 68.6797 255.997 58.207 247.175 49.3854C238.354 40.5638 227.881 33.5662 216.355 28.792C204.829 24.0178 192.476 21.5605 180 21.5605C167.524 21.5605 155.171 24.0178 143.645 28.792C132.119 33.5662 121.646 40.5638 112.825 49.3854C104.003 58.207 97.0056 68.6797 92.2314 80.2056C87.4572 91.7316 85 104.085 85 116.561H119.013C119.013 108.552 120.591 100.621 123.655 93.2219C126.72 85.8226 131.213 79.0994 136.876 73.4363C142.539 67.7731 149.262 63.2809 156.661 60.216C164.061 57.1511 171.991 55.5736 180 55.5736C188.009 55.5736 195.939 57.1511 203.339 60.216C210.738 63.2809 217.461 67.7731 223.124 73.4363C228.787 79.0994 233.28 85.8226 236.345 93.2219C239.409 100.621 240.987 108.552 240.987 116.561H275Z" stroke="#52459F" strokeWidth="68" mask="url(#path-20-inside-1_95_2031)"/>
<mask id="path-21-inside-2_95_2031" fill="white">
<path d="M275 116.561C275 91.365 264.991 67.2014 247.175 49.3854C229.359 31.5694 205.196 21.5605 180 21.5605C154.804 21.5605 130.641 31.5694 112.825 49.3854C95.0089 67.2013 85 91.365 85 116.561L119.03 116.561C119.03 100.39 125.454 84.8823 136.888 73.4482C148.322 62.0141 163.83 55.5905 180 55.5905C196.17 55.5905 211.678 62.0141 223.112 73.4482C234.546 84.8823 240.97 100.39 240.97 116.561H275Z"/>
</mask>
<path d="M275 116.561C275 91.365 264.991 67.2014 247.175 49.3854C229.359 31.5694 205.196 21.5605 180 21.5605C154.804 21.5605 130.641 31.5694 112.825 49.3854C95.0089 67.2013 85 91.365 85 116.561L119.03 116.561C119.03 100.39 125.454 84.8823 136.888 73.4482C148.322 62.0141 163.83 55.5905 180 55.5905C196.17 55.5905 211.678 62.0141 223.112 73.4482C234.546 84.8823 240.97 100.39 240.97 116.561H275Z" stroke="#0F8CE9" strokeWidth="68" mask="url(#path-21-inside-2_95_2031)"/>
<mask id="path-22-inside-3_95_2031" fill="white">
<path d="M275 116.561C275 96.9515 268.932 77.8229 257.629 61.7995C246.325 45.776 230.341 33.643 211.868 27.0651L200.452 59.1233C212.308 63.3449 222.567 71.1318 229.821 81.4155C237.076 91.6991 240.97 103.976 240.97 116.561H275Z"/>
</mask>
<path d="M275 116.561C275 96.9515 268.932 77.8229 257.629 61.7995C246.325 45.776 230.341 33.643 211.868 27.0651L200.452 59.1233C212.308 63.3449 222.567 71.1318 229.821 81.4155C237.076 91.6991 240.97 103.976 240.97 116.561H275Z" stroke="#54BD95" strokeWidth="68" mask="url(#path-22-inside-3_95_2031)"/>
<mask id="path-23-inside-4_95_2031" fill="white">
<path d="M275 116.561C275 97.8071 269.45 79.4731 259.048 63.8687C248.646 48.2643 233.859 36.0875 216.549 28.8726L203.457 60.2833C214.566 64.9138 224.056 72.7287 230.732 82.7435C237.408 92.7582 240.97 104.525 240.97 116.561H275Z"/>
</mask>
<path d="M275 116.561C275 97.8071 269.45 79.4731 259.048 63.8687C248.646 48.2643 233.859 36.0875 216.549 28.8726L203.457 60.2833C214.566 64.9138 224.056 72.7287 230.732 82.7435C237.408 92.7582 240.97 104.525 240.97 116.561H275Z" stroke="#FEE900" strokeWidth="68" mask="url(#path-23-inside-4_95_2031)"/>
<path d="M93.5341 140.7C93.08 140.693 92.6326 140.61 92.1918 140.451C91.7543 140.292 91.3565 140.027 90.9986 139.656C90.6406 139.285 90.3539 138.786 90.1385 138.159C89.9264 137.533 89.8203 136.751 89.8203 135.813C89.8203 134.924 89.9081 134.136 90.0838 133.446C90.2628 132.757 90.5196 132.175 90.8544 131.701C91.1892 131.224 91.5935 130.861 92.0675 130.612C92.5414 130.364 93.0734 130.24 93.6634 130.24C94.2699 130.24 94.8085 130.359 95.2791 130.597C95.7498 130.836 96.1309 131.166 96.4226 131.587C96.7176 132.008 96.9048 132.487 96.9844 133.024H95.468C95.3653 132.599 95.1615 132.253 94.8565 131.985C94.5516 131.716 94.1539 131.582 93.6634 131.582C92.9176 131.582 92.3359 131.907 91.9183 132.556C91.504 133.206 91.2952 134.109 91.2919 135.266H91.3665C91.5421 134.977 91.7576 134.732 92.0128 134.53C92.2713 134.325 92.5597 134.167 92.8778 134.058C93.1993 133.945 93.5374 133.889 93.892 133.889C94.482 133.889 95.0156 134.033 95.4929 134.321C95.9735 134.606 96.3563 135.001 96.6413 135.504C96.9264 136.008 97.0689 136.585 97.0689 137.235C97.0689 137.884 96.9214 138.472 96.6264 138.999C96.3348 139.526 95.9238 139.944 95.3935 140.252C94.8632 140.557 94.2434 140.706 93.5341 140.7ZM93.5291 139.407C93.9202 139.407 94.2699 139.311 94.5781 139.119C94.8864 138.927 95.13 138.668 95.3089 138.343C95.4879 138.018 95.5774 137.655 95.5774 137.254C95.5774 136.863 95.4896 136.507 95.3139 136.186C95.1416 135.864 94.9029 135.609 94.598 135.42C94.2964 135.231 93.9517 135.137 93.5639 135.137C93.2689 135.137 92.9955 135.193 92.7436 135.306C92.495 135.418 92.2763 135.574 92.0874 135.773C91.8984 135.972 91.7493 136.2 91.6399 136.459C91.5339 136.714 91.4808 136.984 91.4808 137.269C91.4808 137.651 91.5687 138.003 91.7443 138.328C91.9233 138.653 92.1669 138.915 92.4751 139.114C92.7867 139.309 93.138 139.407 93.5291 139.407ZM102.425 140.73C101.639 140.726 100.968 140.519 100.411 140.108C99.8542 139.697 99.4283 139.099 99.1333 138.313C98.8384 137.528 98.6909 136.582 98.6909 135.475C98.6909 134.371 98.8384 133.428 99.1333 132.646C99.4316 131.864 99.8592 131.267 100.416 130.856C100.976 130.445 101.646 130.24 102.425 130.24C103.203 130.24 103.871 130.447 104.428 130.861C104.985 131.272 105.411 131.869 105.706 132.651C106.004 133.43 106.153 134.371 106.153 135.475C106.153 136.585 106.006 137.533 105.711 138.318C105.416 139.101 104.99 139.699 104.433 140.113C103.876 140.524 103.207 140.73 102.425 140.73ZM102.425 139.402C103.114 139.402 103.653 139.066 104.04 138.393C104.431 137.72 104.627 136.747 104.627 135.475C104.627 134.629 104.537 133.915 104.358 133.332C104.183 132.745 103.929 132.301 103.598 131.999C103.27 131.695 102.879 131.542 102.425 131.542C101.738 131.542 101.2 131.88 100.809 132.556C100.418 133.232 100.22 134.205 100.217 135.475C100.217 136.323 100.305 137.041 100.481 137.627C100.66 138.211 100.913 138.653 101.241 138.955C101.569 139.253 101.964 139.402 102.425 139.402ZM113.232 138.651V138.115C113.232 137.73 113.311 137.379 113.47 137.061C113.633 136.739 113.868 136.482 114.176 136.29C114.488 136.094 114.864 135.997 115.305 135.997C115.755 135.997 116.133 136.093 116.438 136.285C116.743 136.477 116.973 136.734 117.129 137.056C117.288 137.377 117.368 137.73 117.368 138.115V138.651C117.368 139.036 117.288 139.389 117.129 139.71C116.97 140.029 116.737 140.285 116.428 140.481C116.123 140.673 115.749 140.769 115.305 140.769C114.857 140.769 114.479 140.673 114.171 140.481C113.863 140.285 113.629 140.029 113.47 139.71C113.311 139.389 113.232 139.036 113.232 138.651ZM114.39 138.115V138.651C114.39 138.936 114.458 139.195 114.594 139.427C114.73 139.659 114.967 139.775 115.305 139.775C115.639 139.775 115.873 139.659 116.006 139.427C116.138 139.195 116.205 138.936 116.205 138.651V138.115C116.205 137.829 116.14 137.571 116.011 137.339C115.885 137.107 115.649 136.991 115.305 136.991C114.973 136.991 114.738 137.107 114.599 137.339C114.46 137.571 114.39 137.829 114.39 138.115ZM108.111 132.825V132.288C108.111 131.903 108.19 131.55 108.349 131.229C108.512 130.907 108.747 130.651 109.055 130.458C109.367 130.266 109.743 130.17 110.184 130.17C110.635 130.17 111.013 130.266 111.317 130.458C111.622 130.651 111.853 130.907 112.009 131.229C112.164 131.55 112.242 131.903 112.242 132.288V132.825C112.242 133.209 112.163 133.562 112.004 133.884C111.848 134.202 111.616 134.459 111.308 134.654C111.003 134.847 110.628 134.943 110.184 134.943C109.733 134.943 109.354 134.847 109.045 134.654C108.741 134.459 108.509 134.202 108.349 133.884C108.19 133.562 108.111 133.209 108.111 132.825ZM109.274 132.288V132.825C109.274 133.11 109.34 133.368 109.473 133.6C109.609 133.832 109.846 133.948 110.184 133.948C110.515 133.948 110.747 133.832 110.88 133.6C111.016 133.368 111.084 133.11 111.084 132.825V132.288C111.084 132.003 111.019 131.744 110.89 131.512C110.761 131.28 110.525 131.164 110.184 131.164C109.853 131.164 109.617 131.28 109.478 131.512C109.342 131.744 109.274 132.003 109.274 132.288ZM108.583 140.561L115.583 130.379H116.771L109.771 140.561H108.583Z" fill="black"/>
<path d="M245.766 138.572V137.329L250.165 130.379H251.145V132.208H250.523L247.376 137.19V137.269H253.407V138.572H245.766ZM250.593 140.561V138.194L250.603 137.627V130.379H252.06V140.561H250.593ZM258.684 140.73C257.899 140.726 257.228 140.519 256.671 140.108C256.114 139.697 255.688 139.099 255.393 138.313C255.098 137.528 254.951 136.582 254.951 135.475C254.951 134.371 255.098 133.428 255.393 132.646C255.691 131.864 256.119 131.267 256.676 130.856C257.236 130.445 257.905 130.24 258.684 130.24C259.463 130.24 260.131 130.447 260.688 130.861C261.245 131.272 261.671 131.869 261.966 132.651C262.264 133.43 262.413 134.371 262.413 135.475C262.413 136.585 262.266 137.533 261.971 138.318C261.676 139.101 261.25 139.699 260.693 140.113C260.136 140.524 259.467 140.73 258.684 140.73ZM258.684 139.402C259.374 139.402 259.912 139.066 260.3 138.393C260.691 137.72 260.887 136.747 260.887 135.475C260.887 134.629 260.797 133.915 260.618 133.332C260.443 132.745 260.189 132.301 259.858 131.999C259.529 131.695 259.138 131.542 258.684 131.542C257.998 131.542 257.46 131.88 257.069 132.556C256.677 133.232 256.48 134.205 256.477 135.475C256.477 136.323 256.565 137.041 256.74 137.627C256.919 138.211 257.173 138.653 257.501 138.955C257.829 139.253 258.224 139.402 258.684 139.402ZM269.491 138.651V138.115C269.491 137.73 269.571 137.379 269.73 137.061C269.892 136.739 270.128 136.482 270.436 136.29C270.747 136.094 271.124 135.997 271.564 135.997C272.015 135.997 272.393 136.093 272.698 136.285C273.003 136.477 273.233 136.734 273.389 137.056C273.548 137.377 273.628 137.73 273.628 138.115V138.651C273.628 139.036 273.548 139.389 273.389 139.71C273.23 140.029 272.996 140.285 272.688 140.481C272.383 140.673 272.009 140.769 271.564 140.769C271.117 140.769 270.739 140.673 270.431 140.481C270.123 140.285 269.889 140.029 269.73 139.71C269.571 139.389 269.491 139.036 269.491 138.651ZM270.65 138.115V138.651C270.65 138.936 270.718 139.195 270.854 139.427C270.989 139.659 271.226 139.775 271.564 139.775C271.899 139.775 272.133 139.659 272.265 139.427C272.398 139.195 272.464 138.936 272.464 138.651V138.115C272.464 137.829 272.4 137.571 272.27 137.339C272.144 137.107 271.909 136.991 271.564 136.991C271.233 136.991 270.998 137.107 270.858 137.339C270.719 137.571 270.65 137.829 270.65 138.115ZM264.371 132.825V132.288C264.371 131.903 264.45 131.55 264.609 131.229C264.772 130.907 265.007 130.651 265.315 130.458C265.627 130.266 266.003 130.17 266.444 130.17C266.894 130.17 267.272 130.266 267.577 130.458C267.882 130.651 268.113 130.907 268.268 131.229C268.424 131.55 268.502 131.903 268.502 132.288V132.825C268.502 133.209 268.422 133.562 268.263 133.884C268.108 134.202 267.876 134.459 267.567 134.654C267.262 134.847 266.888 134.943 266.444 134.943C265.993 134.943 265.613 134.847 265.305 134.654C265 134.459 264.768 134.202 264.609 133.884C264.45 133.562 264.371 133.209 264.371 132.825ZM265.534 132.288V132.825C265.534 133.11 265.6 133.368 265.733 133.6C265.869 133.832 266.106 133.948 266.444 133.948C266.775 133.948 267.007 133.832 267.14 133.6C267.276 133.368 267.344 133.11 267.344 132.825V132.288C267.344 132.003 267.279 131.744 267.15 131.512C267.02 131.28 266.785 131.164 266.444 131.164C266.112 131.164 265.877 131.28 265.738 131.512C265.602 131.744 265.534 132.003 265.534 132.288ZM264.843 140.561L271.843 130.379H273.031L266.031 140.561H264.843Z" fill="black"/>
<circle cx="180" cy="116.561" r="39" fill="#FEFEFD"/>
<circle cx="180" cy="116.561" r="30" fill="#E6F9FD"/>
<path d="M172.48 129.318C177.533 132.458 183.885 130.758 186.699 125.513C187.68 123.684 188.054 121.588 188.041 119.666L187.825 105.274C187.826 104.344 187.261 103.527 186.552 103.086C185.842 102.645 184.939 102.55 184.155 102.994L172.47 109.982C170.911 110.927 169.434 112.295 168.436 114.156C165.622 119.401 167.427 126.178 172.48 129.318ZM179.068 117.037C180.903 118.177 181.567 120.664 180.546 122.569C179.524 124.474 177.19 125.099 175.355 123.959C173.52 122.818 172.856 120.331 173.878 118.426C174.903 116.515 177.233 115.897 179.068 117.037Z" fill="#0F8CE9"/>
</g>
<defs>
<filter id="filter0_d_95_2031" x="76" y="177.561" width="88" height="88" filterUnits="userSpaceOnUse" color-interpolation-filters="sRGB">
<feFlood flood-opacity="0" result="BackgroundImageFix"/>
<feColorMatrix in="SourceAlpha" type="matrix" values="0 0 0 0 0 0 0 0 0 0 0 0 0 0 0 0 0 0 127 0" result="hardAlpha"/>
<feOffset dy="4"/>
<feGaussianBlur stdDeviation="4.5"/>
<feComposite in2="hardAlpha" operator="out"/>
<feColorMatrix type="matrix" values="0 0 0 0 0 0 0 0 0 0 0 0 0 0 0 0 0 0 0.05 0"/>
<feBlend mode="normal" in2="BackgroundImageFix" result="effect1_dropShadow_95_2031"/>
<feBlend mode="normal" in="SourceGraphic" in2="effect1_dropShadow_95_2031" result="shape"/>
</filter>
<filter id="filter1_d_95_2031" x="36" y="309.561" width="88" height="88" filterUnits="userSpaceOnUse" color-interpolation-filters="sRGB">
<feFlood flood-opacity="0" result="BackgroundImageFix"/>
<feColorMatrix in="SourceAlpha" type="matrix" values="0 0 0 0 0 0 0 0 0 0 0 0 0 0 0 0 0 0 127 0" result="hardAlpha"/>
<feOffset dy="4"/>
<feGaussianBlur stdDeviation="4.5"/>
<feComposite in2="hardAlpha" operator="out"/>
<feColorMatrix type="matrix" values="0 0 0 0 0 0 0 0 0 0 0 0 0 0 0 0 0 0 0.05 0"/>
<feBlend mode="normal" in2="BackgroundImageFix" result="effect1_dropShadow_95_2031"/>
<feBlend mode="normal" in="SourceGraphic" in2="effect1_dropShadow_95_2031" result="shape"/>
</filter>
<clipPath id="clip0_95_2031">
<rect y="0.560547" width="364" height="430" rx="20" fill="white"/>
</clipPath>
<clipPath id="clip1_95_2031">
<rect width="40" height="40" fill="white" transform="translate(60 329.561)"/>
</clipPath>
</defs>
</svg>
