<svg width="56" height="35" viewBox="0 0 56 35" fill="none" xmlns="http://www.w3.org/2000/svg">
<path d="M19.667 12.5745C19.8849 12.4457 19.994 12.2227 19.994 11.9055C19.994 11.5766 19.892 11.3457 19.6879 11.2128C19.4837 11.0802 19.0863 11.0137 18.4957 11.0137H17.9844V12.7677H18.46C19.0465 12.7677 19.449 12.7034 19.667 12.5745Z" fill="#E6E6E6"/>
<path d="M27.7054 11.4484C27.6578 11.2543 27.5963 11.0045 27.5211 10.6992C27.4695 10.9133 27.419 11.1175 27.3695 11.3116C27.3198 11.5059 27.2693 11.6921 27.2179 11.8705L26.3438 14.7424H28.7043L27.8182 11.8705C27.7906 11.7835 27.7529 11.6427 27.7054 11.4484Z" fill="#E6E6E6"/>
<path d="M19.0984 20.7972C19.0627 20.6516 19.0167 20.4644 18.9601 20.2354C18.9214 20.3959 18.8836 20.5489 18.8465 20.6946C18.8093 20.8402 18.7714 20.98 18.7327 21.1137L18.0771 23.2677H19.8475L19.183 21.1137C19.1624 21.0484 19.134 20.9429 19.0984 20.7972Z" fill="#E6E6E6"/>
<path d="M52.6798 0.00195312H3.27159C1.45181 0.00195312 -0.0234375 1.4772 -0.0234375 3.29698V31.5049C-0.0234375 33.3247 1.45181 34.7999 3.27159 34.7999H52.6798C54.4996 34.7999 55.9748 33.3247 55.9748 31.5049V3.29698C55.9748 1.4772 54.4996 0.00195312 52.6798 0.00195312ZM4.24066 9.26755H13.8809V10.9926H4.24066V9.26755ZM4.24066 12.6163H13.8809V14.3413H4.24066V12.6163ZM4.24066 16.2693H13.8809V17.9945H4.24066V16.2693ZM9.6265 20.7211H8.16383V25.7066H6.38451V20.7211H4.92195V19.1781H9.6265V20.7211ZM20.552 25.7066L20.222 24.5382H17.6935L17.3545 25.7066H15.6733H15.5842H13.6621L12.1639 23.1514V25.7066H10.496V19.1781H12.3556C13.084 19.1781 13.5916 19.2116 13.8785 19.2784C14.1653 19.3454 14.4129 19.4576 14.621 19.6151C14.8559 19.7935 15.0364 20.021 15.1628 20.2974C15.2892 20.5738 15.3524 20.8786 15.3524 21.2114C15.3524 21.7168 15.2282 22.128 14.9801 22.4444C14.7317 22.7611 14.3698 22.9714 13.8941 23.0756L15.6143 25.6192L17.8362 19.178H20.0659L22.3223 25.7065H20.552V25.7066ZM22.3217 16.7339C22.1254 17.0868 21.845 17.3603 21.4803 17.5545C21.1831 17.713 20.8164 17.8259 20.3804 17.8934C19.9443 17.9609 19.2307 17.9946 18.2399 17.9946H15.7842V9.28986H18.1685C19.1515 9.28986 19.8383 9.32169 20.2287 9.38502C20.619 9.44845 20.955 9.55739 21.2365 9.71205C21.5576 9.89044 21.8022 10.1293 21.9708 10.4286C22.1393 10.7278 22.2235 11.0737 22.2235 11.4661C22.2235 11.9617 22.0977 12.355 21.846 12.6464C21.5942 12.9377 21.1928 13.1587 20.642 13.3093C21.2603 13.3569 21.7439 13.5739 22.0927 13.9604C22.4414 14.3469 22.616 14.8632 22.616 15.5093C22.6159 15.9729 22.5179 16.3812 22.3217 16.7339ZM29.328 25.7066H27.62L25.154 22.3353C25.1035 22.2669 25.0239 22.1295 24.9155 21.9229C24.8069 21.7161 24.6887 21.4732 24.5609 21.1937C24.5965 21.4672 24.6225 21.7095 24.639 21.9206C24.6552 22.1318 24.6635 22.319 24.6635 22.4826V25.7067H22.9466V19.1782H24.6635L27.1296 22.536C27.1771 22.6046 27.255 22.7419 27.3636 22.9486C27.4721 23.1552 27.5919 23.4012 27.7227 23.6866C27.687 23.4161 27.661 23.1753 27.6447 22.9643C27.6282 22.753 27.6201 22.5658 27.6201 22.4023V19.1781H29.3281V25.7066H29.328ZM29.2039 16.4366H25.8326L25.3807 17.9945H23.0201L26.0228 9.28975H28.9957L32.0043 17.9945H29.6439L29.2039 16.4366ZM34.3537 25.2495C33.8989 25.6702 33.2923 25.8805 32.5342 25.8805C32.0793 25.8805 31.6653 25.8031 31.2923 25.6486C30.9192 25.4941 30.5603 25.2517 30.2154 24.9217L31.0181 23.5974C31.2826 23.8978 31.5435 24.1222 31.8006 24.2707C32.0578 24.4194 32.3142 24.4937 32.5699 24.4937C32.8077 24.4937 33.0031 24.4298 33.1562 24.302C33.3092 24.1743 33.3859 24.0122 33.3859 23.816C33.3859 23.599 33.3197 23.4317 33.1876 23.3142C33.0552 23.1968 32.7558 23.0757 32.289 22.9508C31.6498 22.7784 31.198 22.5539 30.9334 22.2775C30.6688 22.0011 30.5365 21.622 30.5365 21.1404C30.5365 20.5161 30.7453 20.0071 31.1631 19.6131C31.5806 19.2191 32.1224 19.0223 32.7884 19.0223C33.1481 19.0223 33.4892 19.0705 33.8118 19.1672C34.1342 19.2638 34.4397 19.4101 34.7282 19.6064L34.1707 20.8862C33.9685 20.714 33.7611 20.5837 33.5486 20.4962C33.336 20.4085 33.1257 20.3645 32.9175 20.3645C32.7034 20.3645 32.5295 20.4159 32.3959 20.5183C32.262 20.6211 32.1952 20.7525 32.1952 20.913C32.1952 21.0765 32.2538 21.2072 32.3713 21.3054C32.4886 21.4036 32.7153 21.4971 33.0513 21.5862L33.1316 21.6085C33.8569 21.8048 34.3341 22.0205 34.563 22.2552C34.7176 22.4158 34.835 22.6081 34.9153 22.8327C34.9956 23.0572 35.0358 23.306 35.0358 23.5796C35.036 24.2723 34.8085 24.8287 34.3537 25.2495ZM35.4619 12.9494C35.3172 12.674 35.1594 12.35 34.9891 11.9773C35.0367 12.3421 35.0715 12.6652 35.0933 12.9465C35.1149 13.2279 35.126 13.4777 35.126 13.6957V17.9946H32.8369V9.28986H35.126L38.414 13.767C38.4772 13.8583 38.5812 14.0415 38.7262 14.3171C38.8708 14.5926 39.0302 14.9206 39.2049 15.3011C39.1573 14.9404 39.1224 14.6194 39.1008 14.3378C39.079 14.0564 39.0681 13.8068 39.0681 13.5887V9.28986H41.3452V17.9946H39.0681L35.78 13.4995C35.7124 13.4084 35.6066 13.225 35.4619 12.9494ZM40.0348 20.6095H37.7695V21.7421H39.9054V23.1424H37.7695V25.7065H36.0348V19.178H40.0348V20.6095ZM45.0025 20.6095H42.7372V21.7421H44.8732V23.1424H42.7372V24.2437H45.0025V25.7065H41.0026V19.178H45.0025V20.6095ZM49.346 25.7066L47.8476 23.1514V25.7066H46.1798V19.1781H48.0394C48.7678 19.1781 49.2754 19.2116 49.5623 19.2784C49.8492 19.3454 50.0968 19.4576 50.3047 19.6151C50.5396 19.7935 50.7202 20.021 50.8465 20.2974C50.9728 20.5738 51.0361 20.8786 51.0361 21.2114C51.0361 21.7168 50.9118 22.128 50.6638 22.4444C50.4154 22.7611 50.0536 22.9714 49.5779 23.0756L51.3571 25.7066H49.346ZM48.3969 17.9945L45.5607 14.088V17.9945H43.2122V9.28975H45.5608V13.2437L48.3137 9.28975H51.0785L47.8618 13.5351L51.358 17.9945H48.3969Z" fill="#E6E6E6"/>
<path d="M49.0362 20.7542C48.8712 20.6159 48.594 20.5469 48.2045 20.5469H47.8477V22.2637H48.1778C48.5613 22.2637 48.8414 22.1982 49.0183 22.0674C49.1952 21.9367 49.2838 21.7316 49.2838 21.4521C49.2838 21.125 49.2013 20.8924 49.0362 20.7542Z" fill="#E6E6E6"/>
<path d="M20.0416 14.5373C19.8276 14.3927 19.4312 14.3203 18.8525 14.3203H17.9844V16.217H18.8167C19.3796 16.217 19.7779 16.1467 20.0119 16.0059C20.2458 15.8652 20.3626 15.6303 20.3626 15.3014C20.3627 14.9368 20.2558 14.6821 20.0416 14.5373Z" fill="#E6E6E6"/>
<path d="M13.3524 20.7542C13.1875 20.6159 12.9102 20.5469 12.5207 20.5469H12.1641V22.2637H12.494C12.8775 22.2637 13.1576 22.1982 13.3346 22.0674C13.5116 21.9367 13.6 21.7316 13.6 21.4521C13.5999 21.125 13.5175 20.8924 13.3524 20.7542Z" fill="#E6E6E6"/>
</svg>
