<svg width="43" height="43" viewBox="0 0 43 43" fill="none" xmlns="http://www.w3.org/2000/svg">
<path d="M19.1781 21.6309L17.9531 26.7059C19.5281 27.0559 24.3406 28.6309 25.0406 25.7434C25.7406 22.7684 20.7531 22.0684 19.1781 21.6309Z" fill="#ED6C0C"/>
<path d="M25.0406 25.8313C25.8281 22.8563 20.7531 22.0687 19.1781 21.7188L17.9531 26.7063" fill="#E05A00"/>
<path d="M20.9275 14.7188L19.79 19.3563C21.1025 19.7063 25.1275 21.0188 25.74 18.3938C26.3525 15.6813 22.24 15.0687 20.9275 14.7188Z" fill="#ED6C0C"/>
<path d="M25.74 18.3938C26.44 15.6813 22.24 15.0687 20.9275 14.7188L19.79 19.3563" fill="#E05A00"/>
<path d="M26.0903 0.98112C14.8028 -1.81888 3.42781 5.09362 0.627805 16.2936C-2.17219 27.5811 4.65281 38.9561 15.9403 41.7561C27.2278 44.5561 38.6028 37.7311 41.4028 26.4436C44.2028 15.2436 37.3778 3.86862 26.0903 0.98112ZM30.2903 18.3936C30.0278 20.4061 28.8903 21.4561 27.3153 21.8061C29.4153 22.8561 30.4653 24.5186 29.4153 27.4061C28.1903 30.9936 25.2153 31.2561 21.2778 30.5561L20.3153 34.4061L18.0403 33.7061L19.0028 29.9436C18.3903 29.7686 17.7778 29.5936 17.1653 29.5061L16.2028 33.2686L13.9278 32.6561L14.8903 28.8061C14.3653 28.6311 13.8403 28.5436 13.2278 28.3686L10.2528 27.5811L11.3903 24.9561L13.0528 25.3936C13.6653 25.5686 14.0153 25.1311 14.1028 24.8686L15.5903 18.8311C15.6778 18.8311 15.7653 18.8311 15.8528 18.9186C15.7653 18.9186 15.6778 18.8311 15.5903 18.8311L16.6403 14.5436C16.6403 14.0186 16.4653 13.4061 15.5903 13.2311L13.9278 12.7936L14.5403 10.3436L17.6903 11.1311C18.1278 11.2186 18.6528 11.3936 19.1778 11.4811L20.1403 7.71862L22.4153 8.33112L21.4528 12.0061C22.0653 12.1811 22.6778 12.2686 23.2903 12.4436L24.1653 8.76862L26.4403 9.38112L25.4778 13.1436C28.5403 14.1061 30.7278 15.5936 30.2903 18.3936Z" fill="#FFB600"/>
<path d="M0.627805 16.2939C-2.17219 27.5814 4.65281 38.9564 15.9403 41.7564C27.2278 44.5564 38.6028 37.7314 41.4028 26.4439C44.2028 15.1564 37.3778 3.78145 26.0903 0.981445M30.2903 18.3939C30.0278 20.4064 28.8903 21.4564 27.3153 21.8064C29.4153 22.8564 30.4653 24.5189 29.4153 27.4064C28.1903 30.9939 25.2153 31.2564 21.2778 30.5564L20.3153 34.4064L18.0403 33.7064L19.0028 29.9439C18.3903 29.7689 17.7778 29.5939 17.1653 29.5064L16.2028 33.2689L13.9278 32.6564L14.8903 28.8064C14.3653 28.6314 13.8403 28.5439 13.2278 28.3689L10.2528 27.5814L11.3903 24.9564L13.0528 25.3939C13.6653 25.5689 14.0153 25.1314 14.1028 24.8689L15.5903 18.8314C15.6778 18.8314 15.7653 18.8314 15.8528 18.9189C15.7653 18.9189 15.6778 18.8314 15.5903 18.8314L16.6403 14.5439C16.6403 14.0189 16.4653 13.4064 15.5903 13.2314L13.9278 12.7939L14.5403 10.3439L17.6903 11.1314C18.1278 11.2189 18.6528 11.3939 19.1778 11.4814L20.1403 7.71895L22.4153 8.33144L21.4528 12.0064C22.0653 12.1814 22.6778 12.2689 23.2903 12.4439L24.1653 8.76894L26.4403 9.38144L25.4778 13.1439C28.5403 14.1064 30.7278 15.5939 30.2903 18.3939Z" fill="#F6921E"/>
<path d="M41.2277 27.2314L29.8527 15.8564C30.2902 16.5564 30.5527 17.4314 30.3777 18.4814C30.1152 20.4939 28.9777 21.5439 27.4027 21.8939C29.5027 22.9439 30.5527 24.6064 29.5027 27.4939C28.2777 31.0814 25.3027 31.3439 21.3652 30.6439L20.4027 34.4939L18.0402 33.7064L19.0027 29.9439C18.3902 29.7689 17.7777 29.5939 17.1652 29.5064L16.2027 33.2689L15.6777 33.0939L24.6027 42.0189C32.3027 40.7064 38.9527 35.1064 41.2277 27.2314Z" fill="#D85107"/>
<path d="M10.2529 27.668L14.1904 31.6055L14.8904 28.8055C14.3654 28.6305 13.8404 28.543 13.2279 28.368L10.2529 27.668Z" fill="#E26600"/>
<path d="M26.0033 12.0059L25.6533 13.1434C26.7033 13.4934 27.6658 13.9309 28.4533 14.4559L26.0033 12.0059Z" fill="#E26600"/>
<path d="M22.5025 8.33105L21.54 12.0061C22.1525 12.1811 22.765 12.2686 23.3775 12.4436L23.99 9.81855L22.5025 8.33105Z" fill="#ED6C0C"/>
<path d="M26.6148 9.29395L25.6523 13.0564L25.7398 13.1439C28.3648 14.0189 30.3773 15.4189 30.3773 17.7814L40.8773 28.2814C41.0523 27.6689 41.2273 27.0564 41.4023 26.5314C41.5773 25.8314 41.6648 25.2189 41.7523 24.5189L26.6148 9.29395Z" fill="#ED6C0C"/>
<path d="M28.6273 40.9689L20.6648 33.0064L20.3148 34.3189L18.0398 33.7064L18.7398 30.9939L17.1648 29.4189L16.2023 33.1814L13.9273 32.5689V32.4814L13.8398 32.5689L23.3773 42.1064C25.2148 42.0189 26.9648 41.5814 28.6273 40.9689Z" fill="#ED6C0C"/>
<path d="M30.8154 39.9187L21.3654 30.4688C21.3654 30.4688 21.3654 30.4688 21.2779 30.4688L20.3154 34.3188L18.1279 33.7937L26.0904 41.7563C27.7529 41.3188 29.3279 40.7062 30.8154 39.9187Z" fill="#E05A00"/>
</svg>
