<svg width="56" height="18" viewBox="0 0 56 18" fill="none" xmlns="http://www.w3.org/2000/svg">
<path d="M23.3003 0.589844L19.5754 17.7468H24.0904L27.7024 0.589844H23.3003Z" fill="#1F0D3F"/>
<path d="M16.7535 0.58941L12.1256 12.2155L10.2067 2.28253C9.98097 1.15378 9.07798 0.58941 8.17498 0.58941H0.612359L0.499512 1.04094C2.07976 1.37956 3.77291 1.94392 4.90166 2.50829C5.5789 2.84692 5.69174 3.18553 5.91749 3.97565L9.41665 17.6335H14.1573L21.3813 0.476562H16.7535V0.58941Z" fill="#1F0D3F"/>
<path d="M51.8576 0.589844H48.0199C47.1169 0.589844 46.4397 1.04138 46.101 1.83151L39.4414 17.7468H44.0692L44.9723 15.1507H50.616L51.1804 17.7468H55.2439L51.8576 0.589844ZM46.4397 11.6516L48.81 5.21775L50.1645 11.6516H46.4397Z" fill="#1F0D3F"/>
<path d="M33.5718 5.33034C33.5718 4.76597 34.1362 4.08873 35.4907 3.86298C36.1679 3.75011 37.8611 3.75012 39.8928 4.65312L40.6829 1.04111C39.667 0.702489 38.1997 0.250977 36.5066 0.250977C32.1045 0.250977 29.0568 2.62135 29.0568 5.89472C29.0568 8.37796 31.3143 9.73243 32.8946 10.5226C34.5877 11.3127 35.1521 11.8771 35.1521 12.6672C35.1521 13.7959 33.7976 14.3603 32.4431 14.3603C30.1856 14.3603 28.9439 13.7959 27.9281 13.2316L27.1379 16.9564C28.1538 17.4079 30.0727 17.8594 32.1045 17.8594C36.7323 17.8594 39.7799 15.602 39.7799 11.99C39.7799 7.70074 33.4589 7.36209 33.5718 5.33034Z" fill="#1F0D3F"/>
</svg>
