<svg width="33" height="32" viewBox="0 0 33 32" fill="none" xmlns="http://www.w3.org/2000/svg">
<g clipPath="url(#clip0_388_13894)">
<path d="M29.4872 12.5198L29.9345 8.24271L26.0056 6.49487L24.2584 2.56591L19.9813 3.01263L16.4997 0.489746L13.0187 3.01263L8.74222 2.56591L6.99438 6.49423L3.06542 8.24271L3.51214 12.5192L0.989258 16.0001L3.51214 19.4805L3.06478 23.7576L6.99374 25.5054L8.74094 29.4344L13.0181 28.9877L16.4997 31.5105L19.9806 28.9877L24.2571 29.4344L26.0049 25.5061L29.9339 23.7576L29.4872 19.4811L32.0101 16.0001L29.4872 12.5198ZM28.5643 22.9665L25.0353 24.5365L23.4654 28.0648L19.6261 27.6641L16.4997 29.9297L13.3733 27.6641L9.53326 28.0648L7.96334 24.5358L4.43502 22.9665L4.83566 19.1272L2.57006 16.0001L4.8363 12.8737L4.43566 9.03375L7.96462 7.46383L9.53454 3.93551L13.3739 4.33615L16.4997 2.07055L19.6261 4.33615L23.4661 3.93551L25.036 7.46447L28.5643 9.03375L28.1637 12.8731L30.4293 16.0001L28.163 19.1265L28.5643 22.9665Z" fill="#1F0D3F"/>
<path d="M13.9393 20.2151L9.9118 16.1876L9.00684 17.0926L13.9393 22.025L25.2718 10.6926L24.3668 9.7876L13.9393 20.2151Z" fill="#1F0D3F"/>
</g>
<defs>
<clipPath id="clip0_388_13894">
<rect width="32" height="32" fill="white" transform="translate(0.5)"/>
</clipPath>
</defs>
</svg>
