<svg width="33" height="32" viewBox="0 0 33 32" fill="none" xmlns="http://www.w3.org/2000/svg">
<path d="M23.5 11H20.1645L22.943 7.824C23.302 7.414 23.5 6.8875 23.5 6.3425V6.25C23.5 5.0095 22.4905 4 21.25 4C20.0095 4 19 5.0095 19 6.25V7H20V6.25C20 5.5605 20.5605 5 21.25 5C21.9395 5 22.5 5.5605 22.5 6.25V6.3425C22.5 6.6455 22.39 6.9375 22.1905 7.1655L19 10.812V12H23.5V11Z" fill="#1F0D3F"/>
<path d="M27.5 12H28.5V10.5H29.5V9.5H28.5V4H27.191L24.5 9.382V10.5H27.5V12ZM25.559 9.5L27.5 5.618V9.5H25.559Z" fill="#1F0D3F"/>
<path d="M25.7025 16.3135C29.298 15.5305 32 12.3265 32 8.5C32 4.089 28.411 0.5 24 0.5C20.1735 0.5 16.9695 3.202 16.1865 6.7975C15.304 6.6035 14.4035 6.5 13.5 6.5C6.6075 6.5 1 12.1075 1 19C1 25.8925 6.6075 31.5 13.5 31.5C20.3925 31.5 26 25.8925 26 19C26 18.0965 25.8965 17.196 25.7025 16.3135ZM24 1.5C27.86 1.5 31 4.64 31 8.5C31 12.36 27.86 15.5 24 15.5C20.14 15.5 17 12.36 17 8.5C17 4.64 20.14 1.5 24 1.5ZM22.9805 18.5H22V19.5H22.9745C22.857 21.742 21.9625 23.7765 20.551 25.344L19.8635 24.6565L19.1565 25.3635L19.844 26.051C18.2765 27.463 16.242 28.357 14 28.4745V27.5H13V28.4745C10.758 28.357 8.7235 27.4625 7.156 26.051L7.8435 25.3635L7.1365 24.6565L6.449 25.344C5.037 23.7765 4.143 21.742 4.0255 19.5H5V18.5H4.0255C4.143 16.258 5.0375 14.2235 6.449 12.656L7.1365 13.3435L7.8435 12.6365L7.156 11.949C8.7235 10.537 10.758 9.643 13 9.5255V10.5H14V9.5195C14.719 9.5575 15.431 9.6785 16.1275 9.8795C16.7055 13.185 19.3145 15.794 22.6205 16.3725C22.821 17.069 22.942 17.781 22.9805 18.5ZM13.5 30.5C7.1585 30.5 2 25.3415 2 19C2 12.6585 7.1585 7.5 13.5 7.5C14.353 7.5 15.2035 7.6005 16.036 7.7885C16.015 8.0235 16 8.26 16 8.5C16 8.6045 16.0115 8.7065 16.0155 8.8105C15.1905 8.606 14.3475 8.5 13.5 8.5C7.7105 8.5 3 13.2105 3 19C3 24.7895 7.7105 29.5 13.5 29.5C19.2895 29.5 24 24.7895 24 19C24 18.1525 23.894 17.3095 23.6895 16.4845C23.7935 16.4885 23.8955 16.5 24 16.5C24.24 16.5 24.4765 16.485 24.7115 16.464C24.8995 17.2965 25 18.147 25 19C25 25.3415 19.8415 30.5 13.5 30.5Z" fill="#1F0D3F"/>
<path d="M15 19C15 18.349 14.5805 17.799 14 17.592V11.5H13V17.592C12.4195 17.799 12 18.349 12 19C12 19.827 12.673 20.5 13.5 20.5C13.731 20.5 13.947 20.4435 14.1425 20.3495L17.6465 23.8535L18.3535 23.1465L14.8495 19.6425C14.9435 19.447 15 19.231 15 19ZM13 19C13 18.724 13.224 18.5 13.5 18.5C13.776 18.5 14 18.724 14 19C14 19.276 13.776 19.5 13.5 19.5C13.224 19.5 13 19.276 13 19Z" fill="#1F0D3F"/>
<path d="M28.5005 17.5C27.6735 17.5 27.0005 18.173 27.0005 19C27.0005 19.6255 27.386 20.162 27.9315 20.3865C27.618 23.6785 26.182 26.777 23.8555 29.15L24.5695 29.85C27.069 27.301 28.6065 23.9685 28.932 20.429C29.548 20.2425 30.0005 19.6765 30.0005 19C30.0005 18.173 29.3275 17.5 28.5005 17.5ZM28.5005 19.5C28.2245 19.5 28.0005 19.276 28.0005 19C28.0005 18.724 28.2245 18.5 28.5005 18.5C28.7765 18.5 29.0005 18.724 29.0005 19C29.0005 19.276 28.7765 19.5 28.5005 19.5Z" fill="#1F0D3F"/>
<path d="M3.64141 8.3665C5.97041 6.206 8.96691 4.8775 12.1159 4.577C12.3429 5.1185 12.8774 5.5 13.4999 5.5C14.3269 5.5 14.9999 4.827 14.9999 4C14.9999 3.173 14.3269 2.5 13.4999 2.5C12.8239 2.5 12.2574 2.9525 12.0709 3.5685C8.68541 3.8805 5.46391 5.313 2.96191 7.6335L3.64141 8.3665ZM13.4999 3.5C13.7759 3.5 13.9999 3.724 13.9999 4C13.9999 4.276 13.7759 4.5 13.4999 4.5C13.2239 4.5 12.9999 4.276 12.9999 4C12.9999 3.724 13.2239 3.5 13.4999 3.5Z" fill="#1F0D3F"/>
</svg>
