<svg width="33" height="32" viewBox="0 0 33 32" fill="none" xmlns="http://www.w3.org/2000/svg">
<g clipPath="url(#clip0_388_13907)">
<path d="M22.5 6H10.5V8H22.5V6Z" fill="#1F0D3F"/>
<path d="M22.5 10H10.5V12H22.5V10Z" fill="#1F0D3F"/>
<path d="M16.5 24H10.5V26H16.5V24Z" fill="#1F0D3F"/>
<path d="M16.5 14H10.5V16H16.5V14Z" fill="#1F0D3F"/>
<path d="M24.5 30H8.5C7.96975 29.9994 7.4614 29.7885 7.08646 29.4135C6.71152 29.0386 6.50061 28.5302 6.5 28V4C6.50061 3.46975 6.71152 2.9614 7.08646 2.58646C7.4614 2.21152 7.96975 2.00061 8.5 2H24.5C25.0302 2.00061 25.5386 2.21152 25.9135 2.58646C26.2885 2.9614 26.4994 3.46975 26.5 4V28C26.4994 28.5302 26.2885 29.0386 25.9135 29.4135C25.5386 29.7885 25.0302 29.9994 24.5 30ZM8.5 4V28H24.5V4H8.5Z" fill="#1F0D3F"/>
</g>
<defs>
<clipPath id="clip0_388_13907">
<rect width="32" height="32" fill="white" transform="translate(0.5)"/>
</clipPath>
</defs>
</svg>
