<svg width="56" height="57" viewBox="0 0 56 57" fill="none" xmlns="http://www.w3.org/2000/svg">
<g clipPath="url(#clip0_95_2135)">
<path fillRule="evenodd" clipRule="evenodd" d="M28 56.3711C43.464 56.3711 56 43.8351 56 28.3711C56 12.9071 43.464 0.371094 28 0.371094C12.536 0.371094 0 12.9071 0 28.3711C0 43.8351 12.536 56.3711 28 56.3711Z" fill="white"/>
<path fillRule="evenodd" clipRule="evenodd" d="M27.9935 39.6243C31.0551 36.8541 32.9687 32.8504 32.9687 28.4006C32.9687 23.9513 31.0551 19.9508 27.9935 17.1802C25.3147 14.7447 21.7353 13.2627 17.8409 13.2627C9.46639 13.2627 2.69043 20.0399 2.69043 28.4006C2.69043 36.7646 9.46639 43.5418 17.8409 43.5418C21.7349 43.5422 25.3143 42.0569 27.9935 39.6243Z" fill="#4186CD"/>
<path fillRule="evenodd" clipRule="evenodd" d="M27.9932 39.6239C31.0548 36.8536 32.9684 32.8499 32.9684 28.4002C32.9684 23.9508 31.0548 19.9504 27.9932 17.1797V39.6239Z" fill="#4487CA"/>
<path fillRule="evenodd" clipRule="evenodd" d="M38.1692 13.2627C34.2521 13.2627 30.6728 14.7447 27.994 17.1802C27.4536 17.6782 26.9358 18.2133 26.4632 18.7851H29.5248C29.9527 19.2924 30.3355 19.8275 30.6732 20.3872H25.3152C25.0001 20.9006 24.7075 21.4357 24.4372 21.9893H31.5508C31.7982 22.5091 32.0009 23.0438 32.181 23.5943H23.8065C23.6264 24.1141 23.4689 24.6492 23.3564 25.1964H32.6315C32.8567 26.2295 32.9692 27.3026 32.9692 28.4006C32.9692 30.0821 32.6988 31.7 32.181 33.2098H23.8069C23.9871 33.7598 24.1897 34.2949 24.4372 34.8143H31.5508C31.2804 35.3684 31.0104 35.9031 30.6728 36.4169H25.3148C25.6524 36.9766 26.0578 37.5117 26.4632 38.0194H29.5248C29.0521 38.5908 28.5343 39.1259 27.994 39.6239C30.6728 42.0565 34.2521 43.5418 38.1692 43.5418C46.5211 43.5418 53.2971 36.7646 53.2971 28.4006C53.2971 20.0399 46.5207 13.2627 38.1692 13.2627Z" fill="#CA4638"/>
<path fillRule="evenodd" clipRule="evenodd" d="M51.698 36.8107H51.7657C51.7887 36.8107 51.8105 36.8139 51.8105 36.8042C51.8334 36.7922 51.8556 36.7736 51.8556 36.7555C51.8556 36.7365 51.833 36.7184 51.8105 36.7091C51.8105 36.6999 51.7657 36.7027 51.7657 36.7027H51.698V36.8107ZM51.698 37.0565H51.6082V36.6261H51.7883C51.833 36.6261 51.8556 36.6261 51.9007 36.6479C51.9233 36.6725 51.9454 36.7124 51.9454 36.7559C51.9454 36.8046 51.9229 36.8482 51.8778 36.8659L51.9454 37.0569H51.833L51.7883 36.8848H51.6976L51.698 37.0565ZM51.7657 37.2136C51.9684 37.2136 52.1485 37.0476 52.1485 36.8413C52.1485 36.635 51.9684 36.469 51.7657 36.469C51.5634 36.469 51.4055 36.635 51.4055 36.8413C51.4055 37.0476 51.5634 37.2136 51.7657 37.2136ZM51.2705 36.8413C51.2705 36.5705 51.4958 36.3525 51.7657 36.3525C52.0361 36.3525 52.261 36.5705 52.261 36.8413C52.261 37.1121 52.0357 37.3301 51.7657 37.3301C51.4958 37.3301 51.2705 37.1121 51.2705 36.8413Z" fill="#231F20"/>
<path fillRule="evenodd" clipRule="evenodd" d="M15.4769 32.6134H13.5633L14.6887 26.7123L12.0998 32.6134H10.5238L10.2087 26.7461L8.94832 32.6134H7.21484L8.67795 24.9385H11.6722L11.717 29.6892L13.7881 24.9385H16.9621L15.4769 32.6134Z" fill="#231F20"/>
<path fillRule="evenodd" clipRule="evenodd" d="M36.5252 32.5369C36.0074 32.6787 35.6021 32.7399 35.1745 32.7399C34.2067 32.7399 33.6885 32.2572 33.6885 31.3687C33.6885 31.1934 33.6885 31.0061 33.7332 30.8086L33.8456 30.1969L33.9359 29.7049L34.8139 24.9385H36.6824L36.4124 26.3714H37.3803L37.1103 27.8872H36.1424L35.6472 30.4919C35.6246 30.6083 35.6246 30.6918 35.6246 30.7502C35.6246 31.0729 35.8048 31.2144 36.2548 31.2144C36.4801 31.2144 36.6372 31.1962 36.7726 31.156L36.5252 32.5369Z" fill="#231F20"/>
<path fillRule="evenodd" clipRule="evenodd" d="M29.0515 28.3428C29.0515 29.133 29.4795 29.6746 30.4921 30.0832C31.2577 30.3971 31.3922 30.4893 31.3922 30.7722C31.3922 31.1631 31.0546 31.3375 30.2898 31.3375C29.7269 31.3375 29.1865 31.2614 28.5789 31.0889L28.3311 32.5307L28.3987 32.5432L28.759 32.6076C28.8714 32.6262 29.0294 32.6447 29.2542 32.6628C29.7043 32.6967 30.0645 32.7156 30.3119 32.7156C32.3158 32.7156 33.239 32.0544 33.239 30.6308C33.239 29.7757 32.8562 29.2716 31.9104 28.8929C31.1001 28.5761 31.0103 28.5084 31.0103 28.2167C31.0103 27.8782 31.3254 27.7062 31.9334 27.7062C32.3158 27.7062 32.8336 27.7432 33.3062 27.8017L33.5766 26.3563C33.0814 26.2886 32.3384 26.2334 31.9104 26.2334C29.772 26.2334 29.029 27.1928 29.0515 28.3428Z" fill="#231F20"/>
<path fillRule="evenodd" clipRule="evenodd" d="M20.2946 29.8335C20.0923 29.8117 20.0021 29.8061 19.8667 29.8061C18.809 29.8061 18.2686 30.1256 18.2686 30.7558C18.2686 31.143 18.5386 31.3925 18.9439 31.3925C19.7091 31.3929 20.2721 30.7562 20.2946 29.8335ZM21.5776 32.6134H20.0017L20.0468 31.9646C19.5516 32.478 18.9214 32.721 18.0655 32.721C17.0299 32.721 16.332 32.0259 16.332 31.0173C16.332 29.4954 17.5477 28.6097 19.641 28.6097C19.8663 28.6097 20.1363 28.6246 20.4066 28.6585C20.4739 28.4526 20.4965 28.3635 20.4965 28.2527C20.4965 27.8377 20.1588 27.6837 19.2808 27.6837C18.7404 27.6837 18.1328 27.7514 17.7049 27.859L17.4571 27.9235L17.2769 27.9634L17.5469 26.5615C18.4922 26.3214 19.0999 26.2295 19.7978 26.2295C21.4184 26.2295 22.2743 26.8629 22.2743 28.0621C22.2743 28.3695 22.2517 28.6033 22.1167 29.2983L21.7339 31.5121L21.6667 31.9086L21.6215 32.2254L21.5764 32.4437V32.6134H21.5776Z" fill="#231F20"/>
<path fillRule="evenodd" clipRule="evenodd" d="M26.8457 28.7639C26.8457 28.6349 26.8683 28.5274 26.8683 28.4472C26.8683 27.9399 26.5306 27.6413 25.9677 27.6413C25.3601 27.6413 24.9321 28.041 24.7746 28.7603L26.8457 28.7639ZM27.7685 32.4787C27.1157 32.6511 26.4851 32.7337 25.8323 32.7305C23.7164 32.7305 22.6357 31.7711 22.6357 29.9357C22.6357 27.7924 24.0316 26.2148 25.9226 26.2148C27.4755 26.2148 28.4664 27.0973 28.4664 28.4838C28.4664 28.9456 28.3987 29.3909 28.2186 30.0243H24.4816C24.4591 30.1194 24.4591 30.1629 24.4591 30.2209C24.4591 30.9434 25.022 31.3125 26.1249 31.3125C26.8002 31.3125 27.4083 31.1929 28.0836 30.9189L27.7685 32.4787Z" fill="#231F20"/>
<path fillRule="evenodd" clipRule="evenodd" d="M45.9578 29.0378C45.9578 28.3858 45.6879 27.7677 44.9227 27.7677C43.9548 27.7677 43.3697 28.9056 43.3697 29.9077C43.3697 30.7535 43.7747 31.3225 44.4504 31.3096C44.8554 31.3096 45.7334 30.7531 45.891 29.7812C45.9353 29.5572 45.9578 29.3085 45.9578 29.0378ZM47.8714 29.7844C47.6011 31.86 46.138 32.7799 44.2022 32.7799C42.0859 32.7799 41.2305 31.4885 41.2305 29.9049C41.2305 27.6907 42.6714 26.1934 44.9227 26.1934C46.881 26.1934 47.917 27.4264 47.917 29.0104C47.9166 29.3944 47.9166 29.4218 47.8714 29.7844Z" fill="#231F20"/>
<path fillRule="evenodd" clipRule="evenodd" d="M48.5017 31.6544H48.569C48.569 31.6544 48.592 31.6544 48.6142 31.6452C48.6363 31.6359 48.6367 31.6145 48.6367 31.596C48.6367 31.5807 48.6367 31.5622 48.6142 31.5533C48.6142 31.544 48.569 31.544 48.5469 31.544H48.5017V31.6544ZM48.5017 31.8974H48.4115V31.4671H48.5916C48.6142 31.4671 48.6593 31.4703 48.704 31.4921C48.7266 31.5134 48.7488 31.5565 48.7488 31.5996C48.7488 31.6456 48.7262 31.6919 48.6815 31.71L48.7488 31.8978H48.6363L48.5686 31.7286H48.5017V31.8974ZM48.569 32.0542C48.7721 32.0542 48.9297 31.8882 48.9297 31.6818C48.9297 31.4788 48.7721 31.3127 48.569 31.3127C48.3668 31.3127 48.1866 31.4788 48.1866 31.6818C48.1866 31.8882 48.3668 32.0542 48.569 32.0542ZM48.0742 31.6818C48.0742 31.4143 48.2995 31.1963 48.5694 31.1963C48.8398 31.1963 49.0647 31.4143 49.0647 31.6818C49.0647 31.9526 48.8394 32.1706 48.5694 32.1706C48.2991 32.1706 48.0742 31.9526 48.0742 31.6818Z" fill="white"/>
<path fillRule="evenodd" clipRule="evenodd" d="M15.9493 32.171H14.0583L15.1837 26.2703L12.5948 32.171H10.8839L10.5688 26.3073L9.44334 32.171H7.73242L9.19552 24.4961H12.1443L12.2793 29.2501L14.373 24.4961H17.4346L15.9493 32.171Z" fill="white"/>
<path fillRule="evenodd" clipRule="evenodd" d="M36.9983 32.0977C36.4805 32.2391 36.0751 32.3004 35.6472 32.3004C34.6793 32.3004 34.1611 31.8148 34.1611 30.9296C34.1611 30.7539 34.1837 30.5669 34.2063 30.3699L34.3187 29.7574L34.4085 29.2622L35.287 24.4961H37.1554L36.8855 25.929H37.8533L37.583 27.4481H36.6151L36.1199 30.0523C36.0973 30.1664 36.0973 30.2522 36.0973 30.311C36.0973 30.6342 36.3 30.7724 36.7501 30.7724C36.9527 30.7724 37.1107 30.7539 37.2453 30.7136L36.9983 32.0977Z" fill="white"/>
<path fillRule="evenodd" clipRule="evenodd" d="M41.8376 27.7211L41.7929 27.5244L42.1757 26.5465C42.085 26.5372 42.0403 26.5344 42.0403 26.5283C41.9279 26.5066 41.8828 26.4945 41.8602 26.4945C41.8155 26.482 41.7478 26.4792 41.6805 26.4792C41.0503 26.4792 40.6223 26.7528 40.0369 27.491L40.2399 26.3809H38.2812L37.1328 32.6137H39.0017C39.2491 31.1836 39.3619 30.3692 39.5195 29.6923C39.7669 28.5701 40.6002 28.0595 41.2078 28.1732C41.2751 28.1857 41.3202 28.1857 41.4101 28.2195L41.5225 28.2622L41.8376 27.7211Z" fill="#231F20"/>
<path fillRule="evenodd" clipRule="evenodd" d="M42.4908 25.9814C42.3333 25.9198 42.3107 25.9198 42.2885 25.9137C42.1979 25.892 42.1306 25.8799 42.1306 25.8766C42.0633 25.8674 41.9956 25.8613 41.9279 25.8613C41.3202 25.8613 40.8701 26.1382 40.2847 26.8764L40.4648 25.929H38.7539L37.6055 32.1711H39.4965C40.1718 28.3552 40.4644 27.6851 41.365 27.6851C41.4327 27.6851 41.5 27.6911 41.5902 27.7004L41.8155 27.7463L42.4908 25.9814Z" fill="white"/>
<path fillRule="evenodd" clipRule="evenodd" d="M29.5238 27.9031C29.5238 28.6901 29.9739 29.2344 30.9873 29.6434C31.7525 29.9541 31.8653 30.0464 31.8653 30.3325C31.8653 30.7197 31.5276 30.895 30.7846 30.895C30.1991 30.895 29.6813 30.818 29.0737 30.6488L28.8037 32.0881L28.8936 32.103L29.2312 32.1643C29.3437 32.1864 29.5242 32.2046 29.749 32.2203C30.1991 32.2541 30.5368 32.2723 30.7846 32.2723C32.8102 32.2723 33.7334 31.6142 33.7334 30.1906C33.7334 29.3328 33.351 28.8315 32.3827 28.4531C31.5949 28.1364 31.5043 28.0659 31.5043 27.7733C31.5043 27.4381 31.8198 27.266 32.4274 27.266C32.8098 27.266 33.3054 27.2999 33.8007 27.3583L34.0706 25.9133C33.5754 25.8456 32.8328 25.79 32.3827 25.79C30.2668 25.7904 29.5238 26.7499 29.5238 27.9031Z" fill="white"/>
<path fillRule="evenodd" clipRule="evenodd" d="M20.6998 29.3908C20.4971 29.3694 20.4068 29.3662 20.2718 29.3662C19.2137 29.3662 18.6733 29.6857 18.6733 30.3159C18.6733 30.7036 18.9212 30.9526 19.3487 30.9526C20.1143 30.953 20.6546 30.3131 20.6998 29.3908ZM22.0726 32.1703H20.4967L20.5418 31.5248C20.0692 32.0377 19.4164 32.2779 18.5605 32.2779C17.5475 32.2779 16.8496 31.5828 16.8496 30.5742C16.8496 29.0547 18.0653 28.1666 20.1586 28.1666C20.3613 28.1666 20.6313 28.1848 20.9238 28.2158C20.9689 28.0095 20.9911 27.9236 20.9911 27.81C20.9911 27.3978 20.6534 27.2443 19.7754 27.2443C19.2351 27.2443 18.627 27.3087 18.222 27.4163L17.9521 27.484L17.7945 27.5243L18.0423 26.1188C18.9876 25.8791 19.5953 25.79 20.2932 25.79C21.9139 25.79 22.7697 26.4235 22.7697 27.6198C22.7697 27.9273 22.7471 28.161 22.6347 28.8557L22.2294 31.0731L22.1621 31.4696L22.1169 31.7863L22.0944 32.0011L22.0726 32.1703Z" fill="white"/>
<path fillRule="evenodd" clipRule="evenodd" d="M27.2507 28.3244V28.0045C27.2507 27.4972 26.9356 27.2018 26.3727 27.2018C25.765 27.2018 25.3371 27.5983 25.157 28.3212L27.2507 28.3244ZM28.2415 32.0388C27.6109 32.208 26.9807 32.2911 26.3275 32.2911C24.2117 32.2911 23.1084 31.3316 23.1084 29.493C23.1084 27.3529 24.5038 25.7754 26.3948 25.7754C27.9482 25.7754 28.9386 26.6578 28.9386 28.0416C28.9386 28.5029 28.871 28.9518 28.713 29.5849H24.9765C24.9539 29.6804 24.9539 29.7235 24.9539 29.7815C24.9539 30.5044 25.5164 30.8735 26.5971 30.8735C27.2725 30.8735 27.8805 30.7502 28.5554 30.4766L28.2415 32.0388Z" fill="white"/>
<path fillRule="evenodd" clipRule="evenodd" d="M46.4079 28.542C46.4079 27.8901 46.138 27.2723 45.3728 27.2723C44.4049 27.2723 43.8198 28.4099 43.8198 29.4124C43.8198 30.261 44.2252 30.8304 44.9005 30.8175C45.3059 30.8175 46.1835 30.261 46.3411 29.2891C46.3858 29.0614 46.4079 28.8128 46.4079 28.542ZM48.3667 29.3419C48.0737 31.4171 46.6328 32.3394 44.6974 32.3394C42.5586 32.3394 41.7031 31.0447 41.7031 29.4611C41.7031 27.2502 43.1662 25.75 45.4179 25.75C47.3758 25.75 48.4118 26.983 48.4118 28.5666C48.4118 28.9538 48.4118 28.9788 48.3667 29.3419Z" fill="white"/>
</g>
<defs>
<clipPath id="clip0_95_2135">
<rect width="56" height="56" fill="white" transform="translate(0 0.371094)"/>
</clipPath>
</defs>
</svg>
