<svg width="64" height="41" viewBox="0 0 64 41" fill="none" xmlns="http://www.w3.org/2000/svg">
<g clipPath="url(#clip0_95_2123)">
<path d="M20 40.3711C31.0457 40.3711 40 31.4168 40 20.3711C40 9.3254 31.0457 0.371094 20 0.371094C8.9543 0.371094 0 9.3254 0 20.3711C0 31.4168 8.9543 40.3711 20 40.3711Z" fill="#F93232"/>
<path d="M44 0.371094C39.508 0.371094 35.376 1.87109 32.04 4.37109H32V4.39909C31.208 4.99509 30.48 5.66709 29.786 6.37109H34.214C34.83 6.99709 35.398 7.66709 35.924 8.37109H28.06C27.576 9.00909 27.132 9.67509 26.726 10.3711H37.254C37.63 11.0191 37.984 11.6791 38.29 12.3711H25.708C25.422 13.0211 25.17 13.6871 24.954 14.3711H39.042C39.25 15.0231 39.414 15.6931 39.558 16.3711H24.432C24.298 17.0271 24.186 17.6911 24.118 18.3711H39.88C39.958 19.0271 40 19.6931 40 20.3711H24C24 21.0491 24.054 21.7111 24.12 22.3711H39.884C39.808 23.0491 39.698 23.7151 39.56 24.3711H24.434C24.572 25.0531 24.75 25.7171 24.956 26.3711H39.044C38.828 27.0551 38.576 27.7211 38.29 28.3711H25.708C26.01 29.0591 26.35 29.7271 26.726 30.3711H37.254C36.85 31.0671 36.4 31.7331 35.916 32.3711H28.06C28.592 33.0751 29.166 33.7451 29.784 34.3711H34.214C33.518 35.0771 32.792 35.7471 32 36.3431C35.344 38.8611 39.49 40.3711 44 40.3711C55.046 40.3711 64 31.4151 64 20.3711C64 9.32709 55.046 0.371094 44 0.371094Z" fill="#FED049"/>
</g>
<defs>
<clipPath id="clip0_95_2123">
<rect width="64" height="40" fill="white" transform="translate(0 0.371094)"/>
</clipPath>
</defs>
</svg>
