<svg width="64" height="65" viewBox="0 0 64 65" fill="none" xmlns="http://www.w3.org/2000/svg">
<path d="M27.3157 25.4297L23.5908 42.5867H28.1058L31.7177 25.4297H27.3157Z" fill="white"/>
<path d="M20.7686 25.4293L16.1407 37.0553L14.2219 27.1224C13.9961 25.9936 13.0931 25.4293 12.1901 25.4293H4.6275L4.51465 25.8808C6.0949 26.2194 7.78804 26.7838 8.91679 27.3481C9.59404 27.6868 9.70687 28.0254 9.93262 28.8155L13.4318 42.4734H18.1725L25.3965 25.3164H20.7686V25.4293Z" fill="white"/>
<path d="M55.8723 25.4297H52.0345C51.1315 25.4297 50.4543 25.8812 50.1157 26.6714L43.4561 42.5867H48.0839L48.9869 39.9906H54.6307L55.1951 42.5867H59.2585L55.8723 25.4297ZM50.4543 36.4914L52.8246 30.0576L54.1792 36.4914H50.4543Z" fill="white"/>
<path d="M37.5872 30.1702C37.5872 29.6058 38.1516 28.9286 39.5061 28.7028C40.1833 28.59 41.8765 28.59 43.9082 29.493L44.6983 25.881C43.6824 25.5423 42.2151 25.0908 40.522 25.0908C36.1199 25.0908 33.0722 27.4612 33.0722 30.7346C33.0722 33.2178 35.3297 34.5723 36.91 35.3624C38.6031 36.1525 39.1675 36.7169 39.1675 37.507C39.1675 38.6358 37.8129 39.2002 36.4584 39.2002C34.201 39.2002 32.9593 38.6358 31.9435 38.0714L31.1533 41.7963C32.1692 42.2478 34.0881 42.6993 36.1198 42.6993C40.7477 42.6993 43.7953 40.4418 43.7953 36.8298C43.7953 32.5406 37.4743 32.2019 37.5872 30.1702Z" fill="white"/>
</svg>
