<svg width="42" height="42" viewBox="0 0 42 42" fill="none" xmlns="http://www.w3.org/2000/svg">
<rect width="42" height="42" rx="8" fill="#D0A15C"/>
<path d="M21.103 8.88161C24.3516 8.88161 27.4702 8.88161 30.7188 8.88161C30.9787 8.88161 31.1086 9.01322 31.1086 9.14483C32.9278 13.2247 34.747 17.173 36.6962 21.1213C36.8261 21.2529 36.6962 21.3845 36.5662 21.5162C34.3572 23.7535 32.1482 25.9909 29.8092 28.2283C26.9505 30.9921 23.9618 33.8875 21.103 36.6513C20.8431 36.7829 20.8431 36.7829 20.7132 36.6513C17.8545 33.8875 14.9957 31.1237 12.137 28.2283C9.92794 25.9909 7.58897 23.7535 5.37994 21.5162C5.25 21.3845 5.25 21.2529 5.25 21.1213C6.1596 19.0156 7.19914 17.0414 8.10874 14.9357C9.01834 12.9615 9.92794 11.119 10.8375 9.14483C10.9675 8.88161 11.0974 8.75 11.4873 8.75C14.7358 8.88161 17.8545 8.75 21.103 8.88161ZM21.233 12.4351C18.894 12.4351 16.4251 12.4351 14.0861 12.4351C13.9562 12.4351 13.9562 12.4351 13.8262 12.4351C13.6963 12.4351 13.6963 12.4351 13.6963 12.5667C13.6963 13.7512 13.6963 14.9357 13.5663 16.2518C13.5663 16.3834 13.5663 16.3834 13.6963 16.3834C14.0861 16.3834 14.4759 16.3834 14.8658 16.3834C16.1652 16.3834 17.4646 16.3834 18.7641 16.3834C18.894 16.3834 18.894 16.3834 19.0239 16.3834C19.1539 16.3834 19.1539 16.515 19.1539 16.6466C19.1539 17.173 19.1539 17.8311 19.1539 18.3575C19.1539 18.4891 19.1539 18.4891 19.0239 18.6207C18.1143 18.7523 17.2047 18.7523 16.2951 18.884C15.1257 19.0156 13.9562 19.2788 12.9166 19.6736C12.3969 19.8052 12.007 20.0684 11.6172 20.3317C11.2274 20.7265 11.2274 21.2529 11.6172 21.5162C11.8771 21.7794 12.137 21.911 12.3969 22.0426C13.3065 22.4374 14.2161 22.569 15.1257 22.8323C16.4251 23.0955 17.7245 23.2271 19.0239 23.3587C19.2838 23.3587 19.2838 23.3587 19.2838 23.6219C19.2838 25.9909 19.2838 28.4915 19.2838 30.8605C19.2838 31.1237 19.2838 31.1237 19.5437 31.1237C20.7132 31.1237 22.0126 31.1237 23.1821 31.1237C23.5719 31.1237 23.5719 31.1237 23.5719 30.7288C23.5719 28.7547 23.5719 26.9122 23.5719 24.938C23.5719 24.4116 23.5719 23.8851 23.5719 23.3587C23.5719 23.0955 23.7019 23.0955 23.8318 23.0955C25.1313 23.0955 26.3007 22.9639 27.6002 22.7006C28.6397 22.569 29.5493 22.3058 30.4589 21.911C30.7188 21.7794 30.9787 21.5162 31.2386 21.3845C31.4985 21.1213 31.4985 20.8581 31.2386 20.5949C30.9787 20.4633 30.8487 20.2001 30.5889 20.0684C29.0295 19.1472 27.2103 18.7523 25.3911 18.6207C24.8714 18.6207 24.3516 18.6207 23.8318 18.4891C23.7019 18.4891 23.7019 18.4891 23.7019 18.2259C23.7019 17.6995 23.7019 17.0414 23.7019 16.515C23.7019 16.3834 23.7019 16.2518 23.9618 16.2518C24.3516 16.2518 24.7414 16.2518 25.1313 16.2518C26.4307 16.2518 27.6002 16.2518 28.8996 16.2518C29.1595 16.2518 29.1595 16.1202 29.1595 15.9885C29.1595 15.8569 29.1595 15.8569 29.1595 15.7253C29.1595 14.6724 29.1595 13.6196 29.1595 12.4351C29.1595 12.1719 29.1595 12.1719 28.8996 12.1719C26.0409 12.4351 23.5719 12.4351 21.233 12.4351Z" fill="white"/>
<path d="M20.5831 22.437C19.6735 22.437 18.8939 22.437 17.9843 22.3054C16.5549 22.1737 14.9956 22.0421 13.5662 21.5157C13.3063 21.3841 13.0465 21.2525 12.6566 21.1209C12.2668 20.8576 12.2668 20.5944 12.6566 20.4628C13.1764 20.1996 13.6962 20.068 14.2159 19.9364C15.2555 19.6732 16.295 19.5415 17.4645 19.4099C17.8543 19.4099 18.3741 19.2783 18.7639 19.2783C18.8939 19.2783 19.0238 19.2783 19.0238 19.5415C19.0238 20.3312 19.0238 20.9893 19.0238 21.7789C19.0238 22.0421 19.1538 22.0421 19.2837 22.0421C20.3233 22.0421 21.3628 22.0421 22.2724 22.0421C22.5323 22.0421 22.7922 22.0421 23.0521 22.0421C23.312 22.0421 23.312 22.0421 23.312 21.7789C23.312 21.1209 23.312 20.4628 23.312 19.8048C23.312 19.4099 23.312 19.4099 23.7018 19.4099C25.391 19.5415 27.0803 19.6731 28.7696 20.1996C29.0294 20.3312 29.4193 20.4628 29.6792 20.5944C29.939 20.726 29.939 20.9893 29.6792 21.1209C29.1594 21.5157 28.6396 21.6473 27.9899 21.7789C26.6905 22.0421 25.391 22.3054 24.0916 22.3054C23.0521 22.3054 21.7526 22.437 20.5831 22.437Z" fill="white"/>
</svg>
